<svg xmlns="http://www.w3.org/2000/svg" height="512" viewBox="0 0 512 512" width="512"><path d="M471.95 253.05c0 120.9-98.01 218.9-218.9 218.9-120.9 0-218.9-98.01-218.9-218.9 0-120.9 98.01-218.9 218.9-218.9 120.9 0 218.9 98.01 218.9 218.9" fill="#1793d1" fill-rule="evenodd"/><path d="M256 1C115.17 1 1 115.17 1 256c0 140.83 114.17 255 255 255 140.83 0 255-114.17 255-255C511 115.17 396.83 1 256 1m8.827 44.93c120.9 0 218.9 98 218.9 218.9s-98 218.9-218.9 218.9-218.93-98-218.93-218.9 98.03-218.9 218.93-218.9" fill-opacity=".067" fill-rule="evenodd"/><g fill-opacity=".129" fill-rule="evenodd"><path d="M256 4.433c-138.94 0-251.57 112.63-251.57 251.57S117.06 507.573 256 507.573s251.57-112.63 251.57-251.57S394.94 4.433 256 4.433m5.885 38.556c120.9 0 218.9 98 218.9 218.9s-98 218.9-218.9 218.9-218.93-98-218.93-218.9 98.03-218.9 218.93-218.9"/><path d="M256 8.356c-136.77 0-247.64 110.87-247.64 247.64 0 136.77 110.87 247.64 247.64 247.64 136.77 0 247.64-110.87 247.64-247.64 0-136.77-110.87-247.64-247.64-247.64m2.942 31.69c120.9 0 218.9 98 218.9 218.9s-98 218.9-218.9 218.9-218.93-98-218.93-218.9 98.03-218.9 218.93-218.9"/></g><path d="M271 94.627s-11.15 7.445-28.48 21.322L389.8 264.86c-8.026 27.65-10.27 20.863-35.75 59.666L196.905 167.15l-27.68 22.61 158.634 158.198-57.927 37.213-90.428-92.607-54.737-55.45-25.002 25.625 45.433 45.44 159.423 157.71c112.203 17.036 168.03-166.81 168.03-166.81" opacity=".25"/><path d="M253.04 7.86C117.62 7.86 7.85 117.64 7.85 253.05c0 135.42 109.78 245.19 245.19 245.19 135.42 0 245.19-109.78 245.19-245.19 0-135.42-109.78-245.19-245.19-245.19zm0 26.296c120.9 0 218.9 98 218.9 218.9s-98 218.9-218.9 218.9-218.93-98-218.93-218.9 98.03-218.9 218.93-218.9z" fill="#ffffff" fill-rule="evenodd" stroke="#000000" stroke-opacity=".31" stroke-width="4.904"/><g transform="matrix(1.15626 0 0 1.15626 -74.492 -242.157)" fill="#ffffff" fill-rule="evenodd"><path d="M311.093 326.853c-5.895 6.094-5.738 15.812.35 21.713 0 0 31.66 31.527 71.23 70.935 8.458 8.423 9.822 18.537 5.592 33.188-4.23 14.652-15.177 31.84-29.233 45.956-14.057 14.116-31.2 25.135-45.834 29.425-14.634 4.29-24.754 2.968-33.21-5.453-19.73-19.647-37.343-37.506-50.153-50.42-6.406-6.455-11.59-11.668-15.33-15.333-1.87-1.833-3.352-3.244-4.627-4.403-.637-.58-1.158-1.054-2.05-1.75-.448-.347-.865-.737-2.245-1.51-.69-.387-1.517-.942-3.85-1.53-2.334-.59-8.952-1.716-14.702 4.057-3.42 3.348-5.085 8.1-4.503 12.85.583 4.75 3.346 8.96 7.474 11.382.76.71 1.628 1.505 3.006 2.855 3.49 3.42 8.645 8.6 15.024 15.03 12.756 12.858 30.434 30.782 50.277 50.542 17.265 17.194 41.996 19.48 63.54 13.163 21.546-6.317 41.922-20.12 58.955-37.226 17.034-17.104 30.753-37.537 36.98-59.11 6.227-21.57 3.837-46.29-13.428-63.484l-71.23-70.934c-2.9-2.968-6.88-4.636-11.028-4.625-4.15.01-8.12 1.7-11.003 4.683z" color="#000000" overflow="visible" opacity=".87"/><path d="M248.843 390.02c-5.895 6.095-5.738 15.813.35 21.714l79.86 79.527c3.87 3.966 9.576 5.54 14.932 4.12 5.355-1.42 9.532-5.614 10.93-10.975 1.397-5.362-.2-11.06-4.182-14.914l-79.86-79.527c-2.9-2.967-6.877-4.636-11.027-4.625-4.15.01-8.118 1.7-11.003 4.682z" opacity=".87"/><circle r="15.362" cy="415.946" cx="-187.598" transform="rotate(-45.12)" color="#000000" overflow="visible" opacity=".87"/><circle r="15.362" cy="415.946" cx="-100.545" transform="rotate(-45.12)" color="#000000" overflow="visible" opacity=".87"/><circle r="15.362" cy="415.946" cx="-10.933" transform="rotate(-45.12)" color="#000000" overflow="visible" opacity=".87"/></g></svg>